<?xml version="1.0" standalone="no"?>
<!DOCTYPE svg PUBLIC "-//W3C//DTD SVG 20010904//EN"
 "http://www.w3.org/TR/2001/REC-SVG-20010904/DTD/svg10.dtd">
<svg version="1.0" xmlns="http://www.w3.org/2000/svg"
 width="1022.000000pt" height="1022.000000pt" viewBox="0 0 1022.000000 1022.000000"
 preserveAspectRatio="xMidYMid meet">
<metadata>
Created by potrace 1.14, written by Peter Selinger 2001-2017
</metadata>
<g transform="translate(0.000000,1022.000000) scale(0.100000,-0.100000)"
fill="#000000" stroke="none">
<path d="M630 10063 l0 -153 -160 0 -160 0 0 -160 0 -160 -155 0 -155 0 0
-3360 0 -3360 155 0 155 0 0 -320 0 -320 160 0 160 0 0 -160 0 -160 160 0 160
0 0 -320 0 -320 160 0 160 0 0 -160 0 -160 160 0 160 0 0 -160 0 -160 160 0
160 0 0 -160 0 -160 320 0 320 0 0 -153 0 -152 2560 0 2560 0 0 152 0 153 320
0 320 0 0 160 0 160 160 0 160 0 0 160 0 160 160 0 160 0 0 160 0 160 160 0
160 0 0 320 0 320 160 0 160 0 0 160 0 160 160 0 160 0 0 320 0 320 153 0 152
0 0 3360 0 3360 -152 0 -153 0 0 160 0 160 -160 0 -159 0 -3 153 -3 152 -157
1 -158 1 0 -154 0 -153 -320 0 -320 0 0 -160 0 -160 -160 0 -160 0 0 -160 0
-160 -480 0 -480 0 0 160 0 160 -480 0 -480 0 0 160 0 160 -320 0 -319 0 -3
153 -3 152 -637 1 -638 0 0 -153 0 -153 -320 0 -320 0 0 -160 0 -160 -480 0
-480 0 0 -160 0 -160 -480 0 -480 0 0 160 0 160 -160 0 -160 0 0 160 0 160
-320 0 -319 0 -3 153 -3 152 -157 1 -158 1 0 -154z"/>
</g>
</svg>
